<?xml version="1.0" standalone="no"?>
<!DOCTYPE svg PUBLIC "-//W3C//DTD SVG 20010904//EN"
 "http://www.w3.org/TR/2001/REC-SVG-20010904/DTD/svg10.dtd">
<svg version="1.0" xmlns="http://www.w3.org/2000/svg"
 width="1024.000000pt" height="1024.000000pt" viewBox="0 0 1024.000000 1024.000000"
 preserveAspectRatio="xMidYMid meet">
<metadata>
Created by potrace 1.11, written by Peter Selinger 2001-2013
</metadata>
<g transform="translate(0.000000,1024.000000) scale(0.100000,-0.100000)"
fill="#000000" stroke="none">
<path d="M5017 10214 c-1 -1 -54 -4 -117 -8 -63 -3 -131 -8 -150 -11 -19 -2
-55 -7 -80 -10 -109 -13 -341 -66 -460 -105 -206 -68 -446 -181 -570 -268 -63
-45 -234 -227 -302 -323 -138 -193 -272 -511 -322 -769 -47 -238 -66 -402 -82
-700 -6 -129 -6 -1134 1 -1250 6 -115 5 -624 -2 -925 -13 -521 -7 -1190 12
-1370 2 -22 6 -72 10 -110 3 -39 7 -81 9 -95 3 -14 7 -52 11 -85 3 -33 8 -67
10 -75 2 -8 6 -35 9 -60 3 -25 8 -56 11 -70 3 -14 10 -52 16 -85 5 -33 14 -76
19 -95 15 -55 41 -163 45 -186 10 -46 90 -285 125 -374 76 -192 166 -325 311
-465 270 -259 661 -429 1230 -536 64 -12 121 -24 127 -28 7 -4 11 -63 12 -161
2 -255 6 -228 -37 -225 -21 2 -74 6 -118 9 -290 22 -617 127 -885 284 -401
236 -739 601 -955 1031 -83 165 -173 407 -200 535 -2 12 -11 53 -19 91 -8 39
-18 95 -22 125 -3 30 -8 58 -10 62 -15 24 -21 318 -11 468 7 96 10 125 27 215
5 28 11 61 14 75 7 45 37 154 58 213 11 32 18 60 16 61 -163 109 -352 89 -491
-51 -89 -88 -126 -172 -133 -303 -2 -47 -7 -96 -9 -110 -28 -142 -27 -589 0
-730 3 -13 7 -42 11 -65 3 -22 10 -60 16 -85 5 -25 11 -52 13 -60 47 -220 167
-526 293 -743 35 -61 70 -122 76 -134 6 -13 14 -23 19 -23 4 0 7 -5 7 -10 0
-13 145 -210 225 -306 146 -176 423 -426 625 -563 172 -117 434 -259 565 -306
28 -10 55 -22 60 -25 6 -4 28 -13 50 -19 22 -7 49 -16 60 -21 101 -41 282 -87
495 -124 45 -8 114 -16 174 -21 33 -3 62 -7 64 -9 2 -3 6 -78 9 -168 2 -90 5
-183 6 -208 l2 -45 -45 -6 c-24 -3 -130 -4 -235 -2 -533 12 -663 4 -828 -52
-154 -53 -247 -186 -247 -354 0 -143 74 -300 190 -404 l52 -47 1453 0 1453 0
47 52 c197 224 222 511 57 673 -58 58 -97 78 -187 98 -137 31 -285 43 -485 40
-259 -5 -664 -5 -685 0 -18 4 -20 11 -18 78 5 259 8 330 12 338 4 5 38 11 76
15 39 3 85 8 103 11 17 3 44 7 60 9 266 38 598 146 867 283 722 368 1287 1009
1536 1746 62 185 94 326 123 547 14 104 15 493 2 570 -3 19 -8 58 -11 85 -3
28 -8 57 -10 65 -7 24 -15 71 -21 125 -18 151 -116 262 -261 296 -50 11 -128
13 -176 4 -40 -8 -129 -43 -151 -60 -18 -13 -17 -16 3 -77 25 -79 58 -209 66
-268 4 -24 8 -47 10 -50 2 -3 6 -41 10 -85 4 -44 9 -89 11 -100 6 -28 6 -258
-1 -330 -10 -124 -17 -173 -40 -285 -46 -221 -102 -386 -206 -598 -286 -585
-791 -1042 -1385 -1258 -117 -42 -277 -85 -374 -99 -20 -3 -45 -7 -55 -9 -11
-2 -51 -7 -89 -10 -38 -4 -72 -7 -75 -8 -24 -2 -26 15 -23 214 2 117 4 214 5
215 1 1 29 4 62 8 191 20 479 89 610 145 229 98 406 198 497 280 9 8 41 35 70
60 79 66 192 194 258 293 49 74 140 244 140 263 0 3 6 20 14 37 53 116 165
488 192 637 3 14 9 41 14 60 5 19 12 51 15 70 3 19 8 46 10 60 10 49 13 66 19
115 4 28 11 77 16 110 13 84 22 170 35 335 25 310 25 903 0 1355 -2 33 -6 119
-9 190 -4 72 -9 153 -11 180 -2 28 -6 100 -10 160 -3 61 -8 148 -10 195 -8
141 -14 258 -20 410 -8 223 -16 390 -20 440 -2 25 -6 86 -10 135 -12 179 -22
308 -30 375 -75 666 -195 1058 -422 1382 -123 176 -320 350 -494 438 -88 45
-349 135 -445 154 -10 2 -49 11 -85 20 -83 19 -115 25 -159 31 -19 3 -57 9
-85 14 -61 12 -140 20 -265 27 -97 6 -270 11 -273 8z"/>
</g>
</svg>
